<?xml version="1.0" encoding="utf-8"?>
<!-- Generator: Adobe Illustrator 25.4.1, SVG Export Plug-In . SVG Version: 6.00 Build 0)  -->
<svg version="1.1" id="sequelmark-logo" xmlns="http://www.w3.org/2000/svg" xmlns:xlink="http://www.w3.org/1999/xlink" x="0px"
	 y="0px" viewBox="0 0 1000 179.3" style="enable-background:new 0 0 1000 179.3;" xml:space="preserve">
<style type="text/css">
	.st0{fill:#1976D2;}
</style>
<g>
	<path class="st0" d="M7.9,107.8c2.6,1.3,5.7,2.7,9.4,4.1c3.7,1.4,7.6,2.6,11.7,3.6c4.1,1,8,1.5,11.6,1.5c5.4,0,9.9-0.5,13.3-1.6
		c3.4-1,6-2.6,7.9-4.7c1.8-2.1,2.7-4.7,2.7-7.9c0-3-1.3-5.6-3.8-7.9c-2.5-2.3-5.7-4.6-9.6-6.9c-3.9-2.3-7.8-4.6-11.8-6.9
		c-4.7-2.7-9.3-5.6-13.9-8.6c-4.6-3-8.8-6.3-12.7-9.9c-3.9-3.6-7-7.4-9.3-11.6C1.2,46.7,0,42.1,0,37.2c0-6.7,1.8-12.7,5.3-18
		c3.6-5.3,8.7-9.5,15.5-12.6c6.8-3.1,15-4.7,24.5-4.7c6.5,0,13,1,19.7,3.1c6.7,2.1,12.4,4.3,17.3,6.8L74,32
		c-2.6-1.3-5.4-2.5-8.3-3.8c-3-1.2-6.1-2.3-9.4-3.1c-3.3-0.8-6.8-1.3-10.6-1.3c-5.7,0-10.4,1.1-14.2,3.3c-3.8,2.2-5.7,5.6-5.7,10.1
		c0,3.2,1.2,6.1,3.5,8.5c2.3,2.5,5.5,4.7,9.4,6.9c3.9,2.1,8,4.6,12.1,7.3c4.7,2.8,9.3,5.6,14.1,8.3c4.7,2.7,9,5.7,12.9,8.9
		c3.9,3.2,7,6.9,9.3,11.1c2.3,4.2,3.5,9.1,3.5,14.8c0,7-1.9,13.2-5.8,18.5c-3.9,5.4-9.5,9.7-16.8,12.9c-7.3,3.2-16.3,4.8-26.8,4.8
		c-2.7,0-5.8-0.4-9.4-1.1c-3.6-0.7-7.2-1.6-10.9-2.5s-7.1-2.1-10.4-3.5c-3.2-1.4-5.9-2.7-8.1-4.2L7.9,107.8z"/>
	<path class="st0" d="M127,97.3c0.8,4.1,2.2,7.7,4.3,10.8c2.1,3,5,5.4,8.9,7.1c3.9,1.7,8.9,2.5,15.1,2.5c5.4,0,10.3-0.8,14.6-2.4
		c4.3-1.6,8.6-3.6,12.7-6.1l7.2,18.4c-2.7,2.2-5.8,4.2-9.2,6c-3.4,1.8-7.2,3.2-11.4,4.2c-4.2,1-9,1.5-14.4,1.5
		c-12.1,0-22.2-2-30.2-6c-8-4-14.1-9.7-18.1-17.2c-4.1-7.4-6.1-16.1-6.1-26.1c0-10.1,1.9-18.8,5.7-26.3c3.8-7.4,9.2-13.2,16.3-17.3
		c7-4.1,15.5-6.1,25.3-6.1c9.7,0,17.7,2.2,24.1,6.7c6.4,4.5,11.1,10.4,14.1,17.9c3,7.5,4.6,15.7,4.6,24.6v7.8H127z M166.5,80.4
		c-0.8-4.3-2.1-7.8-3.9-10.5c-1.8-2.7-4-4.7-6.7-6.1c-2.7-1.4-5.7-2-9-2c-3.4,0-6.4,0.7-9.2,2.1c-2.8,1.4-5,3.5-6.8,6.2
		c-1.7,2.7-3,6.1-3.8,10.3H166.5z"/>
	<path class="st0" d="M280.3,42.8l-5.4,8.4c-0.7-0.6-1.5-1.3-2.4-1.9c-3.6-2.6-7.6-4.8-11.9-6.5c-4.3-1.7-8.5-2.5-12.5-2.5
		c-10.1,0-18.7,2.1-25.9,6.3c-7.2,4.2-12.7,10-16.5,17.4c-3.8,7.4-5.7,16.1-5.7,26.1c0,10,1.9,18.6,5.6,25.9
		c3.7,7.3,9.2,13,16.4,17.1s15.5,6.1,25.1,6.1c4.7,0,8.9-0.7,12.9-2.1c2.9-1,5.6-2.4,8.2-4.1v46.4l25.2-1.9V42.8H280.3z
		 M260.8,114.6c-3.9,2.1-8.1,3.1-12.5,3.1c-4.5,0-8.5-1.2-11.8-3.6c-3.4-2.4-6-5.7-7.8-9.8c-1.8-4.1-2.7-8.8-2.7-14.2
		c0-5.6,0.8-10.4,2.5-14.6c1.7-4.2,4.2-7.5,7.7-10c3.4-2.5,7.5-3.7,12.1-3.7c4.4,0,8.6,0.9,12.5,2.8c2.4,1.1,4.9,2.8,7.5,5.1v40
		C265.7,111.7,263.2,113.3,260.8,114.6z"/>
	<path class="st0" d="M404.3,43v93.8h-16.5l-4.1-10.1c-4.1,2.8-8.4,5.2-12.7,7.1c-4.3,1.9-8.5,3.4-12.6,4.5
		c-4.1,1.1-7.8,1.6-11.1,1.6c-8.5,0-15.1-1.7-19.8-5c-4.7-3.4-7.9-7.9-9.7-13.7c-1.8-5.7-2.7-12.2-2.7-19.5V40.9h25.2v59.7
		c0,5.9,1.2,10.5,3.7,13.6c2.5,3.1,5.7,4.7,9.9,4.7c3.2,0,6.4-0.6,9.5-1.7c3.1-1.2,5.9-2.6,8.5-4.3c2.6-1.7,5-3.3,7.4-4.8V43H404.3z
		"/>
	<path class="st0" d="M446.8,97.3c0.8,4.1,2.2,7.7,4.3,10.8c2.1,3,5,5.4,8.9,7.1c3.9,1.7,8.9,2.5,15.1,2.5c5.4,0,10.3-0.8,14.6-2.4
		c4.3-1.6,8.6-3.6,12.7-6.1l7.2,18.4c-2.7,2.2-5.8,4.2-9.2,6c-3.4,1.8-7.2,3.2-11.4,4.2c-4.2,1-9,1.5-14.4,1.5
		c-12.1,0-22.2-2-30.2-6c-8-4-14.1-9.7-18.1-17.2c-4.1-7.4-6.1-16.1-6.1-26.1c0-10.1,1.9-18.8,5.7-26.3c3.8-7.4,9.2-13.2,16.3-17.3
		c7-4.1,15.5-6.1,25.3-6.1c9.7,0,17.7,2.2,24.1,6.7c6.4,4.5,11.1,10.4,14.1,17.9c3,7.5,4.6,15.7,4.6,24.6v7.8H446.8z M486.3,80.4
		c-0.8-4.3-2.1-7.8-3.9-10.5c-1.8-2.7-4-4.7-6.7-6.1c-2.7-1.4-5.7-2-9-2c-3.4,0-6.4,0.7-9.2,2.1c-2.8,1.4-5,3.5-6.8,6.2
		c-1.7,2.7-3,6.1-3.8,10.3H486.3z"/>
	<path class="st0" d="M527.6,136.8V2.1l25-2.1v136.8H527.6z"/>
	<path class="st0" d="M721.1,74v63h-25.2V78.9c0-4-0.4-7.3-1.2-10c-0.8-2.6-2-4.7-3.7-6.1c-1.7-1.4-3.9-2.1-6.8-2.1
		c-3,0-5.8,0.6-8.5,1.7c-2.7,1.2-5.3,2.7-7.9,4.5c-2.5,1.8-4.7,3.4-6.7,4.9c0,0.7,0,1.5,0,2.2v63h-25.4V78.9c0-4-0.4-7.3-1.1-10
		c-0.7-2.6-1.9-4.7-3.6-6.1c-1.7-1.4-3.9-2.1-6.8-2.1c-3,0-5.8,0.6-8.5,1.7c-2.7,1.2-5.3,2.7-7.8,4.5c-2.5,1.8-4.8,3.5-7,5v64.9
		h-25.2v-94h16.5l4.3,9.9c4.1-2.7,8.2-5.1,12.3-7.1c4.1-2,8-3.5,11.9-4.5s7.2-1.5,10.1-1.5c7.5,0,13.4,1.4,17.8,4.1
		c3.5,2.2,6.2,5.1,8.2,8.8c3.8-2.7,7.7-5,11.8-6.9c4.1-2,8.1-3.5,11.9-4.5c3.8-1,7.2-1.5,10.2-1.5c7.5,0,13.4,1.4,17.8,4.1
		c4.4,2.7,7.6,6.6,9.5,11.7C720.1,60.6,721.1,66.8,721.1,74z"/>
	<path class="st0" d="M743.9,48.8c2.5-1.7,5.8-3.1,10.1-4.4c4.3-1.2,8.6-2.2,13.1-3c4.5-0.8,8-1.2,10.6-1.2c7.5,0,14.3,1.5,20.5,4.5
		c6.2,3,11.2,7.1,14.9,12.3c3.7,5.2,5.6,11.2,5.6,17.9v61.8h-16.7l-4.3-10.1c-3.5,3.6-7.3,6.6-11.4,8.9c-4.1,2.3-8.6,3.5-13.4,3.5
		c-11.5,0-20-2.8-25.6-8.4c-5.6-5.6-8.3-13-8.3-22c0-9.7,3.3-17.1,9.9-22.2c6.6-5.1,15.2-7.7,25.8-7.9h18.4v-0.2
		c-0.1-4.7-1.5-8.3-4.2-11c-2.7-2.6-6.3-4-11-4c-4.4,0-9.2,0.6-14.3,1.9c-5.2,1.3-9.5,2.7-13,4.3L743.9,48.8z M762.3,113.8
		c1.1,1.6,2.5,2.8,4.3,3.9c1.7,1,3.7,1.6,5.9,1.6c3.5,0,7-0.8,10.7-2.3c3.6-1.6,7-3.9,10.3-7V95.6h-19c-4.4,0-7.8,1.4-10.2,4.1
		c-2.4,2.7-3.6,5.8-3.6,9.1C760.6,110.6,761.2,112.2,762.3,113.8z"/>
	<path class="st0" d="M839.1,136.8v-94h13.2l8.3,15.7c2.7-2.3,5.9-4.7,9.6-7.1c3.7-2.4,7.5-4.4,11.4-6.1c3.9-1.7,7.6-2.5,11-2.5
		l5,20.2c-2.8,0-6.2,0.7-10,2.1c-3.8,1.4-7.8,3.4-11.8,5.8c-4.1,2.5-7.9,5.3-11.5,8.5v57.4H839.1z"/>
	<path class="st0" d="M912.2,136.8V2.1l25-2.1v77l40.5-36.8l14,18l-26.4,23.1l34.7,55.6h-29.3l-23.3-39.5l-10.3,8.7v30.8H912.2z"/>
</g>
</svg>
