<?xml version="1.0" encoding="utf-8"?>
<!-- Generator: Adobe Illustrator 25.4.1, SVG Export Plug-In . SVG Version: 6.00 Build 0)  -->
<svg version="1.1" id="sequelmark-icon" xmlns="http://www.w3.org/2000/svg" xmlns:xlink="http://www.w3.org/1999/xlink" x="0px"
	 y="0px" viewBox="0 0 1000 1000" style="enable-background:new 0 0 1000 1000;" xml:space="preserve">
<style type="text/css">
	.st0{fill:#1976D2;}
	.st1{fill:#FFFFFF;}
</style>
<path class="st0" d="M1000,100v800c0,55.2-44.8,100-100,100H100C44.8,1000,0,955.2,0,900V100C0,44.8,44.8,0,100,0h800
	C955.2,0,1000,44.8,1000,100z"/>
<g>
	<path class="st1" d="M148.7,610.8c7.7,3.9,17.1,7.9,28.1,12.2c11,4.2,22.7,7.8,35,10.7c12.3,2.9,23.9,4.3,34.7,4.3
		c16.2,0,29.4-1.5,39.6-4.6c10.2-3.1,18-7.8,23.4-14.2c5.4-6.4,8.1-14.2,8.1-23.4c0-8.9-3.8-16.8-11.3-23.7
		c-7.5-6.9-17.1-13.8-28.6-20.5c-11.6-6.7-23.3-13.6-35.3-20.5c-13.9-8.1-27.7-16.7-41.4-25.8c-13.7-9.1-26.3-18.9-37.9-29.5
		c-11.6-10.6-20.8-22.2-27.8-34.7c-6.9-12.5-10.4-26.1-10.4-40.8c0-20.1,5.3-38,15.9-53.8c10.6-15.8,26-28.4,46.3-37.6
		c20.3-9.3,44.7-13.9,73.2-13.9c19.3,0,38.9,3.1,58.7,9.3c19.9,6.2,37.1,12.9,51.8,20.3l-24.9,60.2c-7.7-3.9-16-7.6-24.9-11.3
		c-8.9-3.7-18.2-6.7-28.1-9.3c-9.8-2.5-20.4-3.8-31.5-3.8c-17,0-31.2,3.3-42.5,9.8c-11.4,6.6-17.1,16.6-17.1,30.1
		c0,9.6,3.5,18.1,10.4,25.5c6.9,7.3,16.3,14.2,28.1,20.5c11.8,6.4,23.8,13.6,36.2,21.7c13.9,8.5,27.9,16.8,42,24.9
		c14.1,8.1,26.9,17,38.5,26.6c11.6,9.6,20.8,20.7,27.8,33.3c6.9,12.5,10.4,27.3,10.4,44.3c0,20.8-5.8,39.3-17.4,55.3
		c-11.6,16-28.3,28.8-50.1,38.5c-21.8,9.6-48.5,14.5-80.2,14.5c-8.1,0-17.5-1.1-28.1-3.2c-10.6-2.1-21.4-4.6-32.4-7.5
		c-11-2.9-21.3-6.4-31-10.4c-9.6-4.1-17.8-8.2-24.3-12.4L148.7,610.8z"/>
	<path class="st1" d="M875,510.1v188.1h-75.2V524.6c0-12-1.2-21.9-3.5-29.8c-2.3-7.9-6-14-11-18.2c-5-4.2-11.8-6.4-20.3-6.4
		c-8.9,0-17.4,1.7-25.5,5.2c-8.1,3.5-15.9,7.9-23.4,13.3c-7.3,5.3-14,10.2-20.1,14.7c0.1,2.2,0.1,4.4,0.1,6.7v188.1h-75.8V524.6
		c0-12-1.1-21.9-3.2-29.8c-2.1-7.9-5.7-14-10.7-18.2c-5-4.2-11.8-6.4-20.3-6.4c-8.9,0-17.4,1.7-25.5,5.2
		c-8.1,3.5-15.8,7.9-23.1,13.3c-7.3,5.4-14.3,10.4-20.8,15v193.9h-75.2V417h49.2l12.7,29.5c12.3-8.1,24.6-15.1,36.7-21.1
		c12.2-6,24-10.4,35.6-13.3c11.6-2.9,21.6-4.3,30.1-4.3c22.4,0,40.1,4.1,53.2,12.2c10.4,6.5,18.6,15.2,24.4,26.2
		c11.4-7.9,23.1-14.8,35.2-20.7c12.3-6,24.2-10.4,35.6-13.3c11.4-2.9,21.5-4.3,30.4-4.3c22.4,0,40.1,4.1,53.2,12.2
		c13.1,8.1,22.6,19.8,28.4,35C872.1,470.1,875,488.5,875,510.1z"/>
</g>
</svg>
